<svg xmlns="http://www.w3.org/2000/svg" viewBox="0 0 300 200" width="300" height="200" shape-rendering="crispEdges">
    <rect x="200" y="0" width="100" height="100" fill="#c47200"></rect>
    <polygon points="200,0 300,0 286,14 214,14" fill="#ffc674"></polygon>
    <polygon points="200,0 214,14 214,86 200,100" fill="#ffc674"></polygon>
    <rect x="214" y="14" width="72" height="72" fill="#ff9f1c"></rect>
    <rect x="0" y="100" width="100" height="100" fill="#c47200"></rect>
    <polygon points="0,100 100,100 86,114 14,114" fill="#ffc674"></polygon>
    <polygon points="0,100 14,114 14,186 0,200" fill="#ffc674"></polygon>
    <rect x="14" y="114" width="72" height="72" fill="#ff9f1c"></rect>
    <rect x="100" y="100" width="100" height="100" fill="#c47200"></rect>
    <polygon points="100,100 200,100 186,114 114,114" fill="#ffc674"></polygon>
    <polygon points="100,100 114,114 114,186 100,200" fill="#ffc674"></polygon>
    <rect x="114" y="114" width="72" height="72" fill="#ff9f1c"></rect>
    <rect x="200" y="100" width="100" height="100" fill="#c47200"></rect>
    <polygon points="200,100 300,100 286,114 214,114" fill="#ffc674"></polygon>
    <polygon points="200,100 214,114 214,186 200,200" fill="#ffc674"></polygon>
    <rect x="214" y="114" width="72" height="72" fill="#ff9f1c"></rect>
</svg>