<svg xmlns="http://www.w3.org/2000/svg" viewBox="0 0 300 200" width="300" height="200" shape-rendering="crispEdges">
    <rect x="0" y="0" width="100" height="100" fill="#c41f1f"></rect>
    <polygon points="0,0 100,0 86,14 14,14" fill="#ff8a8a"></polygon>
    <polygon points="0,0 14,14 14,86 0,100" fill="#ff8a8a"></polygon>
    <rect x="14" y="14" width="72" height="72" fill="#ff3b3b"></rect>
    <rect x="100" y="0" width="100" height="100" fill="#c41f1f"></rect>
    <polygon points="100,0 200,0 186,14 114,14" fill="#ff8a8a"></polygon>
    <polygon points="100,0 114,14 114,86 100,100" fill="#ff8a8a"></polygon>
    <rect x="114" y="14" width="72" height="72" fill="#ff3b3b"></rect>
    <rect x="100" y="100" width="100" height="100" fill="#c41f1f"></rect>
    <polygon points="100,100 200,100 186,114 114,114" fill="#ff8a8a"></polygon>
    <polygon points="100,100 114,114 114,186 100,200" fill="#ff8a8a"></polygon>
    <rect x="114" y="114" width="72" height="72" fill="#ff3b3b"></rect>
    <rect x="200" y="100" width="100" height="100" fill="#c41f1f"></rect>
    <polygon points="200,100 300,100 286,114 214,114" fill="#ff8a8a"></polygon>
    <polygon points="200,100 214,114 214,186 200,200" fill="#ff8a8a"></polygon>
    <rect x="214" y="114" width="72" height="72" fill="#ff3b3b"></rect>
</svg>